{
	"asset":{
		"generator":"Khronos glTF Blender I/O v3.5.30",
		"version":"2.0"
	},
	"scene":0,
	"scenes":[
		{
			"name":"Scene",
			"nodes":[
				0
			]
		}
	],
	"nodes":[
		{
			"mesh":0,
			"name":"TV",
			"rotation":[
				0.7071068286895752,
				0,
				0,
				0.7071068286895752
			],
			"scale":[
				0.22499999403953552,
				0.22499999403953552,
				0.22499999403953552
			]
		}
	],
	"meshes":[
		{
			"name":"Cube.002",
			"primitives":[
				{
					"attributes":{
						"POSITION":0,
						"NORMAL":1
					},
					"indices":2
				}
			]
		}
	],
	"accessors":[
		{
			"bufferView":0,
			"componentType":5126,
			"count":1283,
			"max":[
				2.9277517795562744,
				0.3425348699092865,
				-0.0032720970921218395
			],
			"min":[
				-2.9277517795562744,
				-0.43663039803504944,
				-3.75032639503479
			],
			"type":"VEC3"
		},
		{
			"bufferView":1,
			"componentType":5126,
			"count":1283,
			"type":"VEC3"
		},
		{
			"bufferView":2,
			"componentType":5123,
			"count":2298,
			"type":"SCALAR"
		}
	],
	"bufferViews":[
		{
			"buffer":0,
			"byteLength":15396,
			"byteOffset":0,
			"target":34962
		},
		{
			"buffer":0,
			"byteLength":15396,
			"byteOffset":15396,
			"target":34962
		},
		{
			"buffer":0,
			"byteLength":4596,
			"byteOffset":30792,
			"target":34963
		}
	],
	"buffers":[
		{
			"byteLength":35388,
			"uri":"data:application/octet-stream;base64,"
		}
	]
}
